<?xml version="1.0"?>
<svg xmlns="http://www.w3.org/2000/svg" xmlns:xlink="http://www.w3.org/1999/xlink" xmlns:svgjs="http://svgjs.com/svgjs" version="1.1" width="512" height="512" x="0" y="0" viewBox="0 0 512 512" style="enable-background:new 0 0 512 512" xml:space="preserve" class=""><g>
<polygon xmlns="http://www.w3.org/2000/svg" style="" points="446.149,420.109 446.149,178.826 255.989,112.915 65.829,178.826 65.829,420.109   255.989,480.421 " fill="#fd982c" data-original="#fd982c" class=""/>
<polygon xmlns="http://www.w3.org/2000/svg" style="" points="446.149,420.109 446.149,178.826 255.989,112.915 255.989,480.421 " fill="#fa842e" data-original="#fa502e" class=""/>
<polygon xmlns="http://www.w3.org/2000/svg" style="" points="446.149,178.826 255.989,112.915 65.829,178.826 255.989,245.736 " fill="#fff2b4" data-original="#fff2b4" class=""/>
<polygon xmlns="http://www.w3.org/2000/svg" style="" points="446.149,178.826 255.989,112.915 255.989,245.736 " fill="#ffdf8e" data-original="#ffdf8e" class=""/>
<g xmlns="http://www.w3.org/2000/svg">
	<polygon style="" points="65.829,178.826 0,256.722 193.739,327.127 255.989,245.736  " fill="#fabe3d" data-original="#fabe3d" class=""/>
	<polygon style="" points="446.149,178.826 512,256.722 318.261,327.127 255.989,245.736  " fill="#fabe3d" data-original="#fabe3d" class=""/>
</g>
<polygon xmlns="http://www.w3.org/2000/svg" style="" points="446.149,178.826 512,256.722 318.261,327.127 255.989,245.736 " fill="#fd982c" data-original="#fd982c" class=""/>
<polygon xmlns="http://www.w3.org/2000/svg" style="" points="65.829,178.826 0,101.985 193.739,31.579 255.989,112.915 " fill="#fdda50" data-original="#fdda50" class=""/>
<polygon xmlns="http://www.w3.org/2000/svg" style="" points="446.149,178.826 512,101.985 318.261,31.579 255.989,112.915 " fill="#fabe3d" data-original="#fabe3d" class=""/>
<g xmlns="http://www.w3.org/2000/svg">
</g>
<g xmlns="http://www.w3.org/2000/svg">
</g>
<g xmlns="http://www.w3.org/2000/svg">
</g>
<g xmlns="http://www.w3.org/2000/svg">
</g>
<g xmlns="http://www.w3.org/2000/svg">
</g>
<g xmlns="http://www.w3.org/2000/svg">
</g>
<g xmlns="http://www.w3.org/2000/svg">
</g>
<g xmlns="http://www.w3.org/2000/svg">
</g>
<g xmlns="http://www.w3.org/2000/svg">
</g>
<g xmlns="http://www.w3.org/2000/svg">
</g>
<g xmlns="http://www.w3.org/2000/svg">
</g>
<g xmlns="http://www.w3.org/2000/svg">
</g>
<g xmlns="http://www.w3.org/2000/svg">
</g>
<g xmlns="http://www.w3.org/2000/svg">
</g>
<g xmlns="http://www.w3.org/2000/svg">
</g>
</g></svg>
